<svg width="50" height="50" viewBox="0 0 50 50" fill="none" xmlns="http://www.w3.org/2000/svg">
<circle cx="25" cy="25" r="22" stroke="white" stroke-width="6"/>
<path d="M25 35.2386C23.7159 35.2386 22.6222 34.8892 21.7188 34.1903C20.8153 33.4858 20.125 32.4659 19.6477 31.1307C19.1705 29.7898 18.9318 28.1705 18.9318 26.2727C18.9318 24.3864 19.1705 22.7756 19.6477 21.4403C20.1307 20.0994 20.8239 19.0767 21.7273 18.3722C22.6364 17.6619 23.7273 17.3068 25 17.3068C26.2727 17.3068 27.3608 17.6619 28.2642 18.3722C29.1733 19.0767 29.8665 20.0994 30.3438 21.4403C30.8267 22.7756 31.0682 24.3864 31.0682 26.2727C31.0682 28.1705 30.8295 29.7898 30.3523 31.1307C29.875 32.4659 29.1847 33.4858 28.2812 34.1903C27.3778 34.8892 26.2841 35.2386 25 35.2386ZM25 33.3636C26.2727 33.3636 27.2614 32.75 27.9659 31.5227C28.6705 30.2955 29.0227 28.5455 29.0227 26.2727C29.0227 24.7614 28.8608 23.4744 28.5369 22.4119C28.2188 21.3494 27.7585 20.5398 27.1562 19.983C26.5597 19.4261 25.8409 19.1477 25 19.1477C23.7386 19.1477 22.7528 19.7699 22.0426 21.0142C21.3324 22.2528 20.9773 24.0057 20.9773 26.2727C20.9773 27.7841 21.1364 29.0682 21.4545 30.125C21.7727 31.1818 22.2301 31.9858 22.8267 32.5369C23.429 33.0881 24.1534 33.3636 25 33.3636Z" fill="white"/>
</svg>
